<svg width="32" height="31" viewBox="0 0 32 31" fill="none" xmlns="http://www.w3.org/2000/svg">
<ellipse cx="16" cy="15.5" rx="15.5" ry="16" transform="rotate(-90 16 15.5)" fill="#E17A01"/>
<path d="M12 12.8999C12.0517 12.9459 12.1131 12.9823 12.1808 13.0072C12.2485 13.0321 12.3211 13.0449 12.3945 13.0449C12.4678 13.0449 12.5404 13.0321 12.6081 13.0072C12.6758 12.9823 12.7373 12.9459 12.7889 12.8999L15.3445 10.6459V22.1805C15.3445 22.3105 15.403 22.4351 15.5072 22.527C15.6114 22.6189 15.7527 22.6705 15.9 22.6705C16.0474 22.6705 16.1887 22.6189 16.2929 22.527C16.397 22.4351 16.4556 22.3105 16.4556 22.1805V10.6557L18.9945 12.8999C19.0986 12.9912 19.2394 13.0424 19.3861 13.0424C19.5329 13.0424 19.6737 12.9912 19.7778 12.8999C19.8813 12.8081 19.9394 12.6839 19.9394 12.5545C19.9394 12.425 19.8813 12.3008 19.7778 12.209L16.2445 9.09263C16.1988 9.05069 16.1441 9.01731 16.0834 8.99451C16.0228 8.97171 15.9576 8.95996 15.8917 8.95996C15.8258 8.95996 15.7606 8.97171 15.6999 8.99451C15.6393 9.01731 15.5845 9.05069 15.5389 9.09263L12 12.2041C11.948 12.2497 11.9066 12.3039 11.8784 12.3636C11.8502 12.4233 11.8357 12.4873 11.8357 12.552C11.8357 12.6167 11.8502 12.6808 11.8784 12.7405C11.9066 12.8002 11.948 12.8544 12 12.8999Z" fill="white"/>
</svg>
